<?xml version="1.0" encoding="UTF-8"?> <svg xmlns="http://www.w3.org/2000/svg" width="916" height="563" viewBox="0 0 916 563" fill="none"><g clip-path="url(#clip0_1_3)"><path d="M633.727 0C789.376 0 916 126.26 916 281.489C916 436.719 789.376 563 633.727 563C584.711 563 536.522 550.317 494.365 526.277L455.039 503.627C405.762 541.848 345.008 563 282.273 563C126.624 563 6.63948e-05 436.697 0 281.489C0 126.281 126.624 0 282.273 0C334.534 2.23883e-05 385.51 14.3763 429.735 41.5869C429.735 41.5869 444.956 50.4472 460.656 59.5029C510.13 21.1951 570.97 4.12283e-05 633.727 0ZM633.684 37.3525C584.863 37.3525 536.239 52.3584 495.802 79.7646C534.562 102.046 584.1 130.495 622.708 152.646C653.085 170.062 676.668 183.592 682.809 187.088L683.788 187.674C718.52 206.198 740.229 242.204 740.229 281.511C740.229 340.08 692.455 387.748 633.705 387.748C615.871 387.748 598.277 383.339 582.838 374.979L575.826 370.853L314.436 220.357C313.26 219.728 311.997 219.185 310.756 218.62C309.471 218.034 308.23 217.447 306.901 216.947C305.53 216.426 304.092 216.036 302.677 215.602C301.479 215.254 300.282 214.841 299.062 214.537C297.233 214.081 295.382 213.799 293.531 213.495C292.617 213.343 291.723 213.125 290.787 213.017C287.978 212.669 285.126 212.475 282.273 212.475C244.167 212.475 213.158 243.442 213.158 281.489C213.158 306.528 226.834 329.634 248.849 341.817L248.805 341.861L512.961 493.963C549.413 514.724 591.156 525.713 633.684 525.713C768.69 525.713 878.524 416.174 878.524 281.532C878.524 146.89 768.69 37.3527 633.684 37.3525ZM282.273 37.3311C147.267 37.3311 37.4102 146.869 37.4102 281.511C37.4102 416.153 147.245 525.691 282.252 525.691C331.028 525.691 379.544 510.729 419.828 483.388L230.731 374.501C196.827 355.738 175.727 320.101 175.727 281.511C175.727 222.876 223.524 175.165 282.252 175.165C300.565 175.165 318.551 179.791 334.295 188.564L341.11 192.582L601.826 342.708C603.329 343.49 604.875 344.163 606.421 344.814C607.357 345.205 608.293 345.64 609.251 346.009C610.819 346.595 612.453 347.052 614.086 347.529C615.109 347.833 616.133 348.181 617.178 348.441C618.876 348.854 620.618 349.114 622.338 349.396C623.34 349.548 624.342 349.788 625.365 349.918C628.109 350.244 630.896 350.417 633.705 350.417C671.812 350.417 702.819 319.493 702.819 281.489C702.819 255.972 688.84 232.67 666.324 220.683L663.603 219.076H663.624C648.626 210.544 414.304 75.9592 414.123 75.8555C374.644 50.5992 329.156 37.3311 282.273 37.3311Z" fill="#ECEBE4"></path><path d="M633.727 0C789.376 0 916 126.26 916 281.489C916 436.719 789.376 563 633.727 563C584.711 563 536.522 550.317 494.365 526.277L455.039 503.627C405.762 541.848 345.008 563 282.273 563C126.624 563 6.63948e-05 436.697 0 281.489C0 126.281 126.624 0 282.273 0C334.534 2.23883e-05 385.51 14.3763 429.735 41.5869C429.735 41.5869 444.956 50.4472 460.656 59.5029C510.13 21.1951 570.97 4.12283e-05 633.727 0ZM633.684 37.3525C584.863 37.3525 536.239 52.3584 495.802 79.7646C534.562 102.046 584.1 130.495 622.708 152.646C653.085 170.062 676.668 183.592 682.809 187.088L683.788 187.674C718.52 206.198 740.229 242.204 740.229 281.511C740.229 340.08 692.455 387.748 633.705 387.748C615.871 387.748 598.277 383.339 582.838 374.979L575.826 370.853L314.436 220.357C313.26 219.728 311.997 219.185 310.756 218.62C309.471 218.034 308.23 217.447 306.901 216.947C305.53 216.426 304.092 216.036 302.677 215.602C301.479 215.254 300.282 214.841 299.062 214.537C297.233 214.081 295.382 213.799 293.531 213.495C292.617 213.343 291.723 213.125 290.787 213.017C287.978 212.669 285.126 212.475 282.273 212.475C244.167 212.475 213.158 243.442 213.158 281.489C213.158 306.528 226.834 329.634 248.849 341.817L248.805 341.861L512.961 493.963C549.413 514.724 591.156 525.713 633.684 525.713C768.69 525.713 878.524 416.174 878.524 281.532C878.524 146.89 768.69 37.3527 633.684 37.3525ZM282.273 37.3311C147.267 37.3311 37.4102 146.869 37.4102 281.511C37.4102 416.153 147.245 525.691 282.252 525.691C331.028 525.691 379.544 510.729 419.828 483.388L230.731 374.501C196.827 355.738 175.727 320.101 175.727 281.511C175.727 222.876 223.524 175.165 282.252 175.165C300.565 175.165 318.551 179.791 334.295 188.564L341.11 192.582L601.826 342.708C603.329 343.49 604.875 344.163 606.421 344.814C607.357 345.205 608.293 345.64 609.251 346.009C610.819 346.595 612.453 347.052 614.086 347.529C615.109 347.833 616.133 348.181 617.178 348.441C618.876 348.854 620.618 349.114 622.338 349.396C623.34 349.548 624.342 349.788 625.365 349.918C628.109 350.244 630.896 350.417 633.705 350.417C671.812 350.417 702.819 319.493 702.819 281.489C702.819 255.972 688.84 232.67 666.324 220.683L663.603 219.076H663.624C648.626 210.544 414.304 75.9592 414.123 75.8555C374.644 50.5992 329.156 37.3311 282.273 37.3311Z" stroke="#ECEBE4"></path></g><defs><clipPath id="clip0_1_3"><rect width="916" height="563" fill="white"></rect></clipPath></defs></svg> 